<svg width="512" height="512" viewBox="0 0 512 512" fill="none" xmlns="http://www.w3.org/2000/svg">
  <defs>
    <!-- Beautiful Blue Brand Gradient -->
    <linearGradient id="bg-gradient" x1="0" y1="0" x2="1" y2="1">
      <stop offset="0%" stop-color="#3B82F6" />
      <stop offset="100%" stop-color="#1D4ED8" />
    </linearGradient>
  </defs>

  <!-- Squircle Background -->
  <rect 
    width="512" 
    height="512" 
    rx="112" 
    fill="url(#bg-gradient)" 
  />

  <!-- White Wrench Icon in Center -->
  <svg viewBox="0 0 24 24" x="112" y="112" width="288" height="288" fill="none">
    <path 
      d="M14.7 6.3a1 1 0 0 0 0 1.4l1.6 1.6a1 1 0 0 0 1.4 0l3.77-3.77a6 6 0 0 1-7.94 7.94l-6.91 6.91a2.12 2.12 0 0 1-3-3l6.91-6.91a6 6 0 0 1 7.94-7.94l-3.76 3.76z" 
      stroke="#FFFFFF" 
      stroke-width="1.8" 
      stroke-linecap="round" 
      stroke-linejoin="round" 
    />
  </svg>
</svg>
